<svg version="1.1" id="Layer_1" xmlns="http://www.w3.org/2000/svg" xmlns:xlink="http://www.w3.org/1999/xlink" x="0px" y="0px"
	 viewBox="0 0 140 100" style="enable-background:new 0 0 140 100;" xml:space="preserve">
<style type="text/css">
	.st0{fill:#70706F;}
	.st1{fill:#D3C5C1;}
	.st2{fill:#F6E9E4;}
	.st3{fill:#D86D7A;}
	.st4{fill:#68A284;}
	.st5{fill:#FFFFFF;}
	.st6{fill:#868686;}
	.st7{fill:#3D3D3C;}
	#tail path{
	    animation: taleWag linear 2s infinite;
	}
	@keyframes taleWag{
	    0%{
	        transform-origin: 58px 65px;
	        transform:rotate(40deg);
	    }
	    50%{
	        transform-origin: 58px 65px;
	        transform:rotate(0deg);
	    }
	    100%{
	        transform-origin: 58px 65px;
	        transform:rotate(40deg);
	    }
	}
	#left-eye .st5{
	    animation: eyes 2s infinite linear;
	}
	
	#right-eye .st5{
	    animation: eyes 2s infinite linear;
	}
	
	@keyframes eyes{
	    0%{
	        transform: translate(-1px, 2px);   
	    }
	    50%{
	        transform: translate(-2px, 2px);
	    }
	    100%{
	        transform: translate(-1px, 2px);
	    }
	}
</style>
<g>
	<g id="tail">
		<g>
			<g>
				<path class="st0" d="M44,83c-3.4,0-7.1-1-11-3.4c-5.6-3.4-8.8-7.9-9.6-13.2c-1.5-9.7,6.1-18.5,6.4-18.9c0,0,7.8-9.7,3-14.7
					c-2-2.1-4.2-3.1-6.2-2.8c-1.4,0.2-2.5,1-3.3,2.5c-0.7,1.3-0.9,2.4-0.6,3.2c0.4,1.1,1.7,1.8,1.8,1.8c1.7,0.7,2.4,2.7,1.7,4.4
					c-0.7,1.7-2.6,2.5-4.3,1.8c-0.4-0.2-4-1.8-5.4-5.6c-0.7-1.8-1-4.8,1-8.6c1.7-3.3,4.7-5.5,8.2-5.9c4.1-0.6,8.5,1.2,12,4.8
					c7.1,7.5,1.6,18.4-2.8,23.7c-0.1,0.1-5.9,6.9-4.9,13.6c0.5,3.3,2.7,6.1,6.5,8.5c11.4,7.1,18.9-3.8,19.7-5c1-1.5,3.1-2,4.6-1
					c1.5,1,2,3,1,4.6C59,76.9,52.5,83,44,83z"/>
			</g>
		</g>
	</g>
	<g id="body">
		<g>
			<g>
				<g>
					<path class="st1" d="M53.1,61.4c0,11.6,10.4,21,23.3,21V40.4C63.5,40.4,53.1,49.8,53.1,61.4z"/>
				</g>
			</g>
			<g>
				<g>
					<path class="st2" d="M99.7,61.4c0-11.6-10.4-21-23.3-21v41.9C89.2,82.4,99.7,73,99.7,61.4z"/>
				</g>
			</g>
		</g>
		<g>
			<g>
				<g>
					<path class="st1" d="M49.4,51.4c0,11.6,12.1,21,27,21V30.4C61.5,30.4,49.4,39.8,49.4,51.4z"/>
				</g>
			</g>
			<g>
				<g>
					<path class="st1" d="M103.4,51.4c0-11.6-12.1-21-27-21v44.2C91.3,74.6,103.4,62.9,103.4,51.4z"/>
				</g>
			</g>
		</g>
		<g>
			<g>
				<g>
					<rect x="62.9" y="77.3" class="st1" width="10.5" height="9.2"/>
				</g>
			</g>
			<g>
				<g>
					<path class="st1" d="M59.9,89.9c0-4.5,3.7-8.2,8.2-8.2c4.5,0,8.2,3.7,8.2,8.2"/>
				</g>
			</g>
			<g>
				<g>
					<rect x="81.1" y="77.3" class="st2" width="10.5" height="9.2"/>
				</g>
			</g>
			<g>
				<g>
					<path class="st2" d="M78.1,89.9c0-4.5,3.7-8.2,8.2-8.2c4.5,0,8.2,3.7,8.2,8.2"/>
				</g>
			</g>
		</g>
	</g>
	<g id="ears">
		<g id="rigth-ear">
			<g>
				<g>
					<path class="st0" d="M90.1,16.7c5.8-8.9,21.6-9,21.6-9s1.9,20-6.9,26.7"/>
				</g>
			</g>
			<g>
				<g>
					<path class="st3" d="M107.3,12.6c0,0-7.6-0.1-12.7,5.4c-5.1,5.5,9.2,11.5,9.2,11.5S109.6,20.6,107.3,12.6z"/>
				</g>
			</g>
		</g>
		<g id="left-ear">
			<g>
				<g>
					<path class="st0" d="M64.7,16.7c-5.8-8.9-21.6-9-21.6-9s-1.9,20,6.9,26.7"/>
				</g>
			</g>
			<g>
				<g>
					<path class="st3" d="M47.6,12.6c0,0,7.6-0.1,12.7,5.4c5.1,5.5-9.2,11.5-9.2,11.5S45.3,20.6,47.6,12.6z"/>
				</g>
			</g>
		</g>
	</g>
	<g id="face">
		<g>
			<g>
				<path class="st1" d="M76.4,46.1V10.3c0,0-5.4-0.4-13.5,2.6c-8.1,3-14.8,11.9-17,26.4c0,0-5.2,8.1-5.9,15.9c0,0,6.7,2,13.1,6.1
					C54.5,52.8,64.4,46.1,76.4,46.1z"/>
			</g>
		</g>
		<g>
			<g>
				<path class="st2" d="M99.7,61.4c6.5-4.1,13.1-6.1,13.1-6.1c0-7.9-5.9-15.9-5.9-15.9c-2.2-14.6-8.9-23.5-17-26.4
					c-8.1-3-13.5-2.6-13.5-2.6v35.8C88.4,46.1,98.3,52.8,99.7,61.4z"/>
			</g>
		</g>
	</g>
	<g id="left-eye">
		<g>
			<path class="st4" d="M54.2,33.4c0,0,12.4-3.6,12.1,9C66.3,42.4,54.2,46.8,54.2,33.4"/>
		</g>
		<g>
			<g>
				<circle class="st5" cx="62.3" cy="36.6" r="2.1"/>
			</g>
		</g>
	</g>
	<g id="right-eye">
		<g>
			<path class="st4" d="M86.5,42.4c0,0,12.1,4.4,12.1-9C98.6,33.4,86.2,29.8,86.5,42.4"/>
		</g>
		<g>
			<g>
				<circle class="st5" cx="94" cy="36.6" r="2.1"/>
			</g>
		</g>
	</g>
	<g id="whiskers">
		<g>
			<g>
				<g>
					<path class="st6" d="M90.4,51.8c-0.2,0-0.3-0.1-0.4-0.2c-0.1-0.2,0-0.4,0.2-0.5c0.7-0.3,17.9-8,24.4-5.3
						c0.2,0.1,0.3,0.3,0.2,0.5c-0.1,0.2-0.3,0.3-0.5,0.2c-6.1-2.6-23.6,5.2-23.8,5.3C90.5,51.8,90.5,51.8,90.4,51.8z"/>
				</g>
			</g>
		</g>
		<g>
			<g>
				<g>
					<path class="st6" d="M94.4,54.8c-0.2,0-0.4-0.2-0.4-0.4c0-0.2,0.1-0.4,0.4-0.4c2.1-0.2,20.5-2,22.6-1c0.2,0.1,0.3,0.3,0.2,0.5
						c-0.1,0.2-0.3,0.3-0.5,0.2C115.1,53,102.5,53.9,94.4,54.8C94.4,54.8,94.4,54.8,94.4,54.8z"/>
				</g>
			</g>
		</g>
		<g>
			<g>
				<g>
					<path class="st6" d="M111.7,62.3c-0.1,0-0.2,0-0.3-0.1c-2-2.2-11.2-3-14.5-3.1c-0.2,0-0.4-0.2-0.4-0.4c0-0.2,0.2-0.4,0.4-0.4
						c0.5,0,12.5,0.5,15.1,3.4c0.1,0.2,0.1,0.4,0,0.6C111.9,62.2,111.8,62.3,111.7,62.3z"/>
				</g>
			</g>
		</g>
		<g>
			<g>
				<g>
					<path class="st6" d="M62.3,51.8c0.2,0,0.3-0.1,0.4-0.2c0.1-0.2,0-0.4-0.2-0.5c-0.7-0.3-17.9-8-24.4-5.3
						c-0.2,0.1-0.3,0.3-0.2,0.5c0.1,0.2,0.3,0.3,0.5,0.2c6.1-2.6,23.6,5.2,23.8,5.3C62.2,51.8,62.3,51.8,62.3,51.8z"/>
				</g>
			</g>
		</g>
		<g>
			<g>
				<g>
					<path class="st6" d="M58.4,54.8c0.2,0,0.4-0.2,0.4-0.4c0-0.2-0.1-0.4-0.4-0.4c-2.1-0.2-20.5-2-22.6-1c-0.2,0.1-0.3,0.3-0.2,0.5
						c0.1,0.2,0.3,0.3,0.5,0.2C37.6,53,50.2,53.9,58.4,54.8C58.3,54.8,58.4,54.8,58.4,54.8z"/>
				</g>
			</g>
		</g>
		<g>
			<g>
				<g>
					<path class="st6" d="M41.1,62.3c0.1,0,0.2,0,0.3-0.1c2-2.2,11.2-3,14.5-3.1c0.2,0,0.4-0.2,0.4-0.4c0-0.2-0.2-0.4-0.4-0.4
						c-0.5,0-12.5,0.5-15.1,3.4c-0.1,0.2-0.1,0.4,0,0.6C40.9,62.2,41,62.3,41.1,62.3z"/>
				</g>
			</g>
		</g>
	</g>
	<g id="nose">
		<g>
			<g>
				<path class="st1" d="M73.7,52.2l-6-4.4c-0.1-0.1-0.1-0.2-0.2-0.3c-7.7,2.4-13.3,7.6-14.3,14c1.8,1.1,3.4,2.5,5.1,3.8
					c3.7,2.9,7.1,4.6,18.2,4.6V53.3C75.4,53.3,74.4,52.9,73.7,52.2z"/>
			</g>
		</g>
		<g>
			<g>
				<path class="st2" d="M85.3,47.4c0,0,0,0.1-0.1,0.1l-6.3,4.7c-0.7,0.7-1.6,1-2.5,1v16.6c11.1,0,14.5-1.7,18.2-4.6
					c1.7-1.3,3.3-2.7,5.1-3.8C98.6,55.1,93,49.8,85.3,47.4z"/>
			</g>
		</g>
		<g>
			<g>
				<path class="st7" d="M89.9,56c-0.2-0.2-0.6-0.2-0.8,0c0,0-4.1,4-7.9,3.5c-1.7-0.2-3.1-1.3-4.3-3.3v-3c0.7-0.1,1.4-0.4,2-1
					l6.3-4.7c0,0,0-0.1,0.1-0.1c-2.8-0.8-5.8-1.3-8.9-1.3c-3.2,0-6.2,0.5-9,1.3c0.1,0.1,0.1,0.2,0.2,0.3l6,4.4
					c0.6,0.6,1.4,1,2.2,1.1v3c-1.1,2-2.6,3.1-4.2,3.3C67.8,60,63.7,56,63.6,56c-0.2-0.2-0.6-0.2-0.8,0c-0.2,0.2-0.2,0.6,0,0.8
					c0.2,0.2,3.9,3.9,8,3.9c0.3,0,0.6,0,0.9-0.1c1.8-0.3,3.4-1.3,4.7-3.2c1.2,1.9,2.8,2.9,4.7,3.2c0.3,0,0.6,0.1,0.9,0.1
					c4.1,0,7.8-3.7,8-3.9C90.1,56.6,90.1,56.2,89.9,56z"/>
			</g>
		</g>
	</g>
</g>
</svg>
